<svg id="Component_10_4" data-name="Component 10 – 4" xmlns="http://www.w3.org/2000/svg" width="48" height="48" viewBox="0 0 48 48">
  <path id="Path" d="M0,24A24,24,0,1,0,24,0,24,24,0,0,0,0,24Z" fill="rgba(255,255,255,0.12)" style="mix-blend-mode: normal;isolation: isolate"/>
  <path id="Union_1" data-name="Union 1" d="M4.142,22.589A4.146,4.146,0,0,1,0,18.447V4.142A4.146,4.146,0,0,1,4.142,0H18.447a4.146,4.146,0,0,1,4.142,4.142V18.447a4.146,4.146,0,0,1-4.142,4.142ZM3.859,11.295a7.436,7.436,0,1,0,7.436-7.436A7.445,7.445,0,0,0,3.859,11.295ZM17.21,3.636a1.76,1.76,0,1,0,1.759-1.759A1.762,1.762,0,0,0,17.21,3.636ZM7,11.294a4.294,4.294,0,1,1,4.294,4.3A4.3,4.3,0,0,1,7,11.294Z" transform="translate(13.277 12.255)" fill="rgba(255,255,255,0.87)"/>
</svg>
