<svg id="Component_5_2" data-name="Component 5 – 2" xmlns="http://www.w3.org/2000/svg" width="40" height="40" viewBox="0 0 40 40">
  <g id="Path" fill="none" style="mix-blend-mode: normal;isolation: isolate">
    <path d="M0,20A20,20,0,1,0,20,0,20,20,0,0,0,0,20Z" stroke="none"/>
    <path d="M 20 2 C 15.19223022460938 2 10.67209053039551 3.872379302978516 7.272228240966797 7.272228240966797 C 3.872379302978516 10.67209053039551 2 15.19223022460938 2 20 C 2 24.80776977539062 3.872379302978516 29.32791137695312 7.272228240966797 32.72776794433594 C 10.67209053039551 36.12762069702148 15.19223022460938 38 20 38 C 24.80776977539062 38 29.32791137695312 36.12762069702148 32.72776794433594 32.72776794433594 C 36.12762069702148 29.32791137695312 38 24.80776977539062 38 20 C 38 15.19223022460938 36.12762069702148 10.67209053039551 32.72776794433594 7.272228240966797 C 29.32791137695312 3.872379302978516 24.80776977539062 2 20 2 M 20 0 C 31.04528045654297 0 40 8.954719543457031 40 20 C 40 31.04528045654297 31.04528045654297 40 20 40 C 8.954719543457031 40 0 31.04528045654297 0 20 C 0 8.954719543457031 8.954719543457031 0 20 0 Z" stroke="none" fill="rgba(255,255,255,0.87)"/>
  </g>
  <path id="Union_2" data-name="Union 2" d="M3.121,17.021A3.124,3.124,0,0,1,0,13.9V3.121A3.124,3.124,0,0,1,3.121,0H13.9a3.124,3.124,0,0,1,3.121,3.121V13.9A3.124,3.124,0,0,1,13.9,17.021ZM2.908,8.511a5.6,5.6,0,1,0,5.6-5.6A5.61,5.61,0,0,0,2.908,8.511ZM12.968,2.74a1.326,1.326,0,1,0,1.326-1.326A1.328,1.328,0,0,0,12.968,2.74ZM5.275,8.51a3.235,3.235,0,1,1,3.236,3.237A3.24,3.24,0,0,1,5.275,8.51Z" transform="translate(11.915 11.915)" fill="rgba(255,255,255,0.87)"/>
</svg>
