<svg id="Component_7_2" data-name="Component 7 – 2" xmlns="http://www.w3.org/2000/svg" width="40" height="40" viewBox="0 0 40 40">
  <g id="Oval" fill="none" style="mix-blend-mode: normal;isolation: isolate">
    <path d="M40,20A20,20,0,1,0,20,40,20,20,0,0,0,40,20Z" stroke="none"/>
    <path d="M 20 2 C 15.19202041625977 2 10.67182922363281 3.872329711914062 7.272079467773438 7.272079467773438 C 3.872329711914062 10.67182922363281 2 15.19202041625977 2 20 C 2 24.80797958374023 3.872329711914062 29.32817077636719 7.272079467773438 32.72792053222656 C 10.67182922363281 36.12767028808594 15.19202041625977 38 20 38 C 24.80797958374023 38 29.32817077636719 36.12767028808594 32.72792053222656 32.72792053222656 C 36.12767028808594 29.32817077636719 38 24.80797958374023 38 20 C 38 15.19202041625977 36.12767028808594 10.67182922363281 32.72792053222656 7.272079467773438 C 29.32817077636719 3.872329711914062 24.80797958374023 2 20 2 M 20 0 C 31.04570007324219 0 40 8.954299926757812 40 20 C 40 31.04570007324219 31.04570007324219 40 20 40 C 8.954299926757812 40 0 31.04570007324219 0 20 C 0 8.954299926757812 8.954299926757812 0 20 0 Z" stroke="none" fill="rgba(255,255,255,0.87)"/>
  </g>
  <path id="Shape" d="M6.244,10.193V20.426H2.013V10.193H0V6.6H2.013V4.27A3.968,3.968,0,0,1,6.282,0L9.417.013V3.5H7.142a.861.861,0,0,0-.9.98V6.6H9.407l-.37,3.593Z" transform="translate(15.319 10.213)" fill="rgba(255,255,255,0.87)" style="mix-blend-mode: normal;isolation: isolate"/>
</svg>
