<svg id="Component_11_4" data-name="Component 11 – 4" xmlns="http://www.w3.org/2000/svg" width="48" height="48" viewBox="0 0 48 48">
  <path id="Oval" d="M48,24A24,24,0,1,0,24,48,24,24,0,0,0,48,24Z" fill="rgba(255,255,255,0.12)" style="mix-blend-mode: normal;isolation: isolate"/>
  <path id="Path_144" data-name="Path 144" d="M135.18,143.829a.264.264,0,0,0,.033-.052v.052Zm-7.955-2.243h-5.145v15.477h5.145Zm.336-4.785a2.9,2.9,0,1,0-2.944,2.673h.033a2.684,2.684,0,0,0,2.91-2.673m18.214,11.388c0-4.753-2.539-6.964-5.924-6.964a5.116,5.116,0,0,0-4.638,2.553v-2.191H130.07c.066,1.451,0,15.477,0,15.477h5.143v-8.643a3.515,3.515,0,0,1,.169-1.255,2.825,2.825,0,0,1,2.64-1.883c1.864,0,2.607,1.417,2.607,3.5v8.281h5.144Z" transform="translate(-108.776 -122.594)" fill="rgba(255,255,255,0.87)"/>
</svg>
