<svg id="Component_4_2" data-name="Component 4 – 2" xmlns="http://www.w3.org/2000/svg" width="40" height="40" viewBox="0 0 40 40">
  <g id="Oval" fill="none" style="mix-blend-mode: normal;isolation: isolate">
    <path d="M40,20A20,20,0,1,0,20,40,20,20,0,0,0,40,20Z" stroke="none"/>
    <path d="M 20 2 C 15.19202041625977 2 10.67182922363281 3.872329711914062 7.272079467773438 7.272079467773438 C 3.872329711914062 10.67182922363281 2 15.19202041625977 2 20 C 2 24.80797958374023 3.872329711914062 29.32817077636719 7.272079467773438 32.72792053222656 C 10.67182922363281 36.12767028808594 15.19202041625977 38 20 38 C 24.80797958374023 38 29.32817077636719 36.12767028808594 32.72792053222656 32.72792053222656 C 36.12767028808594 29.32817077636719 38 24.80797958374023 38 20 C 38 15.19202041625977 36.12767028808594 10.67182922363281 32.72792053222656 7.272079467773438 C 29.32817077636719 3.872329711914062 24.80797958374023 2 20 2 M 20 0 C 31.04570007324219 0 40 8.954299926757812 40 20 C 40 31.04570007324219 31.04570007324219 40 20 40 C 8.954299926757812 40 0 31.04570007324219 0 20 C 0 8.954299926757812 8.954299926757812 0 20 0 Z" stroke="none" fill="rgba(255,255,255,0.87)"/>
  </g>
  <path id="Path_143" data-name="Path 143" d="M132.946,142.212a.22.22,0,0,0,.028-.043v.043Zm-6.63-1.869h-4.288v12.9h4.288Zm.28-3.988a2.418,2.418,0,1,0-2.453,2.228h.028a2.237,2.237,0,0,0,2.425-2.228m15.178,9.49c0-3.961-2.116-5.8-4.937-5.8a4.263,4.263,0,0,0-3.865,2.128v-1.826h-4.286c.055,1.209,0,12.9,0,12.9h4.286v-7.2a2.929,2.929,0,0,1,.141-1.046,2.354,2.354,0,0,1,2.2-1.569c1.554,0,2.173,1.181,2.173,2.917v6.9h4.287Z" transform="translate(-110.775 -124.683)" fill="rgba(255,255,255,0.87)"/>
</svg>
