<svg id="Component_162_5" data-name="Component 162 – 5" xmlns="http://www.w3.org/2000/svg" width="2835" height="77.001" viewBox="0 0 2835 77.001">
  <g id="Group_202" data-name="Group 202" transform="translate(429.916 -5122.346)">
    <rect id="Rectangle_21" data-name="Rectangle 21" width="2835" height="77" transform="translate(-429.916 5122.346)" fill="#8a764b"/>
    <g id="Layer_1-2" transform="translate(-429.916 5138.346)">
      <g id="Component_183_15" data-name="Component 183 – 15" transform="translate(2790)">
        <rect id="Rectangle_25" data-name="Rectangle 25" width="45" height="45" fill="#fff" opacity="0"/>
        <path id="Union_4" data-name="Union 4" d="M21432.346,14700.169V14668l31.7.1v32.035l-15.9,12.869Zm4.477-2.095,11.184,9.545,11.586-9.545v-25.819l-9.842.011v.593h0v7.429l-3.594,1.551v-8.99h-.006v-.571l-9.346-.021Zm9.33,6.41v-12.276l3.588-1.746v14.194l-1.719,1.417Zm4.773-14.593,7.486-3.556v11.178l-7.486,6.168Zm-12.924,7.633-.006-10.859,12.93-5.608v-7.605l7.482-.011v11.592l-7.482,3.55v0l-5.953,2.893v12Zm-.021-24.084,6.992.016v8.894l-6.98,3.022Z" transform="translate(-21425.695 -14668)" fill="rgba(0,0,0,0.87)" opacity="0.87"/>
      </g>
      <g id="Component_183_16" data-name="Component 183 – 16" transform="translate(2697)">
        <rect id="Rectangle_25-2" data-name="Rectangle 25" width="45" height="45" fill="#fff" opacity="0"/>
        <path id="Union_4-2" data-name="Union 4" d="M21432.346,14700.169V14668l31.7.1v32.035l-15.9,12.869Zm4.477-2.095,11.184,9.545,11.586-9.545v-25.819l-9.842.011v.593h0v7.429l-3.594,1.551v-8.99h-.006v-.571l-9.346-.021Zm9.33,6.41v-12.276l3.588-1.746v14.194l-1.719,1.417Zm4.773-14.593,7.486-3.556v11.178l-7.486,6.168Zm-12.924,7.633-.006-10.859,12.93-5.608v-7.605l7.482-.011v11.592l-7.482,3.55v0l-5.953,2.893v12Zm-.021-24.084,6.992.016v8.894l-6.98,3.022Z" transform="translate(-21425.695 -14668)" fill="rgba(0,0,0,0.87)" opacity="0.87"/>
      </g>
      <g id="Component_183_17" data-name="Component 183 – 17" transform="translate(2604)">
        <rect id="Rectangle_25-3" data-name="Rectangle 25" width="45" height="45" fill="#fff" opacity="0"/>
        <path id="Union_4-3" data-name="Union 4" d="M21432.346,14700.169V14668l31.7.1v32.035l-15.9,12.869Zm4.477-2.095,11.184,9.545,11.586-9.545v-25.819l-9.842.011v.593h0v7.429l-3.594,1.551v-8.99h-.006v-.571l-9.346-.021Zm9.33,6.41v-12.276l3.588-1.746v14.194l-1.719,1.417Zm4.773-14.593,7.486-3.556v11.178l-7.486,6.168Zm-12.924,7.633-.006-10.859,12.93-5.608v-7.605l7.482-.011v11.592l-7.482,3.55v0l-5.953,2.893v12Zm-.021-24.084,6.992.016v8.894l-6.98,3.022Z" transform="translate(-21425.695 -14668)" fill="rgba(0,0,0,0.87)" opacity="0.87"/>
      </g>
      <g id="Component_183_18" data-name="Component 183 – 18" transform="translate(2511)">
        <rect id="Rectangle_25-4" data-name="Rectangle 25" width="45" height="45" fill="#fff" opacity="0"/>
        <path id="Union_4-4" data-name="Union 4" d="M21432.346,14700.169V14668l31.7.1v32.035l-15.9,12.869Zm4.477-2.095,11.184,9.545,11.586-9.545v-25.819l-9.842.011v.593h0v7.429l-3.594,1.551v-8.99h-.006v-.571l-9.346-.021Zm9.33,6.41v-12.276l3.588-1.746v14.194l-1.719,1.417Zm4.773-14.593,7.486-3.556v11.178l-7.486,6.168Zm-12.924,7.633-.006-10.859,12.93-5.608v-7.605l7.482-.011v11.592l-7.482,3.55v0l-5.953,2.893v12Zm-.021-24.084,6.992.016v8.894l-6.98,3.022Z" transform="translate(-21425.695 -14668)" fill="rgba(0,0,0,0.87)" opacity="0.87"/>
      </g>
      <g id="Component_183_19" data-name="Component 183 – 19" transform="translate(2418)">
        <rect id="Rectangle_25-5" data-name="Rectangle 25" width="45" height="45" fill="#fff" opacity="0"/>
        <path id="Union_4-5" data-name="Union 4" d="M21432.346,14700.169V14668l31.7.1v32.035l-15.9,12.869Zm4.477-2.095,11.184,9.545,11.586-9.545v-25.819l-9.842.011v.593h0v7.429l-3.594,1.551v-8.99h-.006v-.571l-9.346-.021Zm9.33,6.41v-12.276l3.588-1.746v14.194l-1.719,1.417Zm4.773-14.593,7.486-3.556v11.178l-7.486,6.168Zm-12.924,7.633-.006-10.859,12.93-5.608v-7.605l7.482-.011v11.592l-7.482,3.55v0l-5.953,2.893v12Zm-.021-24.084,6.992.016v8.894l-6.98,3.022Z" transform="translate(-21425.695 -14668)" fill="rgba(0,0,0,0.87)" opacity="0.87"/>
      </g>
      <g id="Component_183_20" data-name="Component 183 – 20" transform="translate(2325)">
        <rect id="Rectangle_25-6" data-name="Rectangle 25" width="45" height="45" fill="#fff" opacity="0"/>
        <path id="Union_4-6" data-name="Union 4" d="M21432.346,14700.169V14668l31.7.1v32.035l-15.9,12.869Zm4.477-2.095,11.184,9.545,11.586-9.545v-25.819l-9.842.011v.593h0v7.429l-3.594,1.551v-8.99h-.006v-.571l-9.346-.021Zm9.33,6.41v-12.276l3.588-1.746v14.194l-1.719,1.417Zm4.773-14.593,7.486-3.556v11.178l-7.486,6.168Zm-12.924,7.633-.006-10.859,12.93-5.608v-7.605l7.482-.011v11.592l-7.482,3.55v0l-5.953,2.893v12Zm-.021-24.084,6.992.016v8.894l-6.98,3.022Z" transform="translate(-21425.695 -14668)" fill="rgba(0,0,0,0.87)" opacity="0.87"/>
      </g>
      <g id="Component_183_21" data-name="Component 183 – 21" transform="translate(2232)">
        <rect id="Rectangle_25-7" data-name="Rectangle 25" width="45" height="45" fill="#fff" opacity="0"/>
        <path id="Union_4-7" data-name="Union 4" d="M21432.346,14700.169V14668l31.7.1v32.035l-15.9,12.869Zm4.477-2.095,11.184,9.545,11.586-9.545v-25.819l-9.842.011v.593h0v7.429l-3.594,1.551v-8.99h-.006v-.571l-9.346-.021Zm9.33,6.41v-12.276l3.588-1.746v14.194l-1.719,1.417Zm4.773-14.593,7.486-3.556v11.178l-7.486,6.168Zm-12.924,7.633-.006-10.859,12.93-5.608v-7.605l7.482-.011v11.592l-7.482,3.55v0l-5.953,2.893v12Zm-.021-24.084,6.992.016v8.894l-6.98,3.022Z" transform="translate(-21425.695 -14668)" fill="rgba(0,0,0,0.87)" opacity="0.87"/>
      </g>
      <g id="Component_183_25" data-name="Component 183 – 25" transform="translate(2139)">
        <rect id="Rectangle_25-8" data-name="Rectangle 25" width="45" height="45" fill="#fff" opacity="0"/>
        <path id="Union_4-8" data-name="Union 4" d="M21432.346,14700.169V14668l31.7.1v32.035l-15.9,12.869Zm4.477-2.095,11.184,9.545,11.586-9.545v-25.819l-9.842.011v.593h0v7.429l-3.594,1.551v-8.99h-.006v-.571l-9.346-.021Zm9.33,6.41v-12.276l3.588-1.746v14.194l-1.719,1.417Zm4.773-14.593,7.486-3.556v11.178l-7.486,6.168Zm-12.924,7.633-.006-10.859,12.93-5.608v-7.605l7.482-.011v11.592l-7.482,3.55v0l-5.953,2.893v12Zm-.021-24.084,6.992.016v8.894l-6.98,3.022Z" transform="translate(-21425.695 -14668)" fill="rgba(0,0,0,0.87)" opacity="0.87"/>
      </g>
      <g id="Component_183_26" data-name="Component 183 – 26" transform="translate(2046)">
        <rect id="Rectangle_25-9" data-name="Rectangle 25" width="45" height="45" fill="#fff" opacity="0"/>
        <path id="Union_4-9" data-name="Union 4" d="M21432.346,14700.169V14668l31.7.1v32.035l-15.9,12.869Zm4.477-2.095,11.184,9.545,11.586-9.545v-25.819l-9.842.011v.593h0v7.429l-3.594,1.551v-8.99h-.006v-.571l-9.346-.021Zm9.33,6.41v-12.276l3.588-1.746v14.194l-1.719,1.417Zm4.773-14.593,7.486-3.556v11.178l-7.486,6.168Zm-12.924,7.633-.006-10.859,12.93-5.608v-7.605l7.482-.011v11.592l-7.482,3.55v0l-5.953,2.893v12Zm-.021-24.084,6.992.016v8.894l-6.98,3.022Z" transform="translate(-21425.695 -14668)" fill="rgba(0,0,0,0.87)" opacity="0.87"/>
      </g>
      <g id="Component_183_27" data-name="Component 183 – 27" transform="translate(1953)">
        <rect id="Rectangle_25-10" data-name="Rectangle 25" width="45" height="45" fill="#fff" opacity="0"/>
        <path id="Union_4-10" data-name="Union 4" d="M21432.346,14700.169V14668l31.7.1v32.035l-15.9,12.869Zm4.477-2.095,11.184,9.545,11.586-9.545v-25.819l-9.842.011v.593h0v7.429l-3.594,1.551v-8.99h-.006v-.571l-9.346-.021Zm9.33,6.41v-12.276l3.588-1.746v14.194l-1.719,1.417Zm4.773-14.593,7.486-3.556v11.178l-7.486,6.168Zm-12.924,7.633-.006-10.859,12.93-5.608v-7.605l7.482-.011v11.592l-7.482,3.55v0l-5.953,2.893v12Zm-.021-24.084,6.992.016v8.894l-6.98,3.022Z" transform="translate(-21425.695 -14668)" fill="rgba(0,0,0,0.87)" opacity="0.87"/>
      </g>
      <g id="Component_183_28" data-name="Component 183 – 28" transform="translate(1860)">
        <rect id="Rectangle_25-11" data-name="Rectangle 25" width="45" height="45" fill="#fff" opacity="0"/>
        <path id="Union_4-11" data-name="Union 4" d="M21432.346,14700.169V14668l31.7.1v32.035l-15.9,12.869Zm4.477-2.095,11.184,9.545,11.586-9.545v-25.819l-9.842.011v.593h0v7.429l-3.594,1.551v-8.99h-.006v-.571l-9.346-.021Zm9.33,6.41v-12.276l3.588-1.746v14.194l-1.719,1.417Zm4.773-14.593,7.486-3.556v11.178l-7.486,6.168Zm-12.924,7.633-.006-10.859,12.93-5.608v-7.605l7.482-.011v11.592l-7.482,3.55v0l-5.953,2.893v12Zm-.021-24.084,6.992.016v8.894l-6.98,3.022Z" transform="translate(-21425.695 -14668)" fill="rgba(0,0,0,0.87)" opacity="0.87"/>
      </g>
      <g id="Component_183_29" data-name="Component 183 – 29" transform="translate(1767)">
        <rect id="Rectangle_25-12" data-name="Rectangle 25" width="45" height="45" fill="#fff" opacity="0"/>
        <path id="Union_4-12" data-name="Union 4" d="M21432.346,14700.169V14668l31.7.1v32.035l-15.9,12.869Zm4.477-2.095,11.184,9.545,11.586-9.545v-25.819l-9.842.011v.593h0v7.429l-3.594,1.551v-8.99h-.006v-.571l-9.346-.021Zm9.33,6.41v-12.276l3.588-1.746v14.194l-1.719,1.417Zm4.773-14.593,7.486-3.556v11.178l-7.486,6.168Zm-12.924,7.633-.006-10.859,12.93-5.608v-7.605l7.482-.011v11.592l-7.482,3.55v0l-5.953,2.893v12Zm-.021-24.084,6.992.016v8.894l-6.98,3.022Z" transform="translate(-21425.695 -14668)" fill="rgba(0,0,0,0.87)" opacity="0.87"/>
      </g>
      <g id="Component_183_30" data-name="Component 183 – 30" transform="translate(1674)">
        <rect id="Rectangle_25-13" data-name="Rectangle 25" width="45" height="45" fill="#fff" opacity="0"/>
        <path id="Union_4-13" data-name="Union 4" d="M21432.346,14700.169V14668l31.7.1v32.035l-15.9,12.869Zm4.477-2.095,11.184,9.545,11.586-9.545v-25.819l-9.842.011v.593h0v7.429l-3.594,1.551v-8.99h-.006v-.571l-9.346-.021Zm9.33,6.41v-12.276l3.588-1.746v14.194l-1.719,1.417Zm4.773-14.593,7.486-3.556v11.178l-7.486,6.168Zm-12.924,7.633-.006-10.859,12.93-5.608v-7.605l7.482-.011v11.592l-7.482,3.55v0l-5.953,2.893v12Zm-.021-24.084,6.992.016v8.894l-6.98,3.022Z" transform="translate(-21425.695 -14668)" fill="rgba(0,0,0,0.87)" opacity="0.87"/>
      </g>
      <g id="Component_183_31" data-name="Component 183 – 31" transform="translate(1581)">
        <rect id="Rectangle_25-14" data-name="Rectangle 25" width="45" height="45" fill="#fff" opacity="0"/>
        <path id="Union_4-14" data-name="Union 4" d="M21432.346,14700.169V14668l31.7.1v32.035l-15.9,12.869Zm4.477-2.095,11.184,9.545,11.586-9.545v-25.819l-9.842.011v.593h0v7.429l-3.594,1.551v-8.99h-.006v-.571l-9.346-.021Zm9.33,6.41v-12.276l3.588-1.746v14.194l-1.719,1.417Zm4.773-14.593,7.486-3.556v11.178l-7.486,6.168Zm-12.924,7.633-.006-10.859,12.93-5.608v-7.605l7.482-.011v11.592l-7.482,3.55v0l-5.953,2.893v12Zm-.021-24.084,6.992.016v8.894l-6.98,3.022Z" transform="translate(-21425.695 -14668)" fill="rgba(0,0,0,0.87)" opacity="0.87"/>
      </g>
      <g id="Component_183_32" data-name="Component 183 – 32" transform="translate(1488)">
        <rect id="Rectangle_25-15" data-name="Rectangle 25" width="45" height="45" fill="#fff" opacity="0"/>
        <path id="Union_4-15" data-name="Union 4" d="M21432.346,14700.169V14668l31.7.1v32.035l-15.9,12.869Zm4.477-2.095,11.184,9.545,11.586-9.545v-25.819l-9.842.011v.593h0v7.429l-3.594,1.551v-8.99h-.006v-.571l-9.346-.021Zm9.33,6.41v-12.276l3.588-1.746v14.194l-1.719,1.417Zm4.773-14.593,7.486-3.556v11.178l-7.486,6.168Zm-12.924,7.633-.006-10.859,12.93-5.608v-7.605l7.482-.011v11.592l-7.482,3.55v0l-5.953,2.893v12Zm-.021-24.084,6.992.016v8.894l-6.98,3.022Z" transform="translate(-21425.695 -14668)" fill="rgba(0,0,0,0.87)" opacity="0.87"/>
      </g>
      <g id="Component_183_22" data-name="Component 183 – 22" transform="translate(1395)">
        <rect id="Rectangle_25-16" data-name="Rectangle 25" width="45" height="45" fill="#fff" opacity="0"/>
        <path id="Union_4-16" data-name="Union 4" d="M21432.346,14700.169V14668l31.7.1v32.035l-15.9,12.869Zm4.477-2.095,11.184,9.545,11.586-9.545v-25.819l-9.842.011v.593h0v7.429l-3.594,1.551v-8.99h-.006v-.571l-9.346-.021Zm9.33,6.41v-12.276l3.588-1.746v14.194l-1.719,1.417Zm4.773-14.593,7.486-3.556v11.178l-7.486,6.168Zm-12.924,7.633-.006-10.859,12.93-5.608v-7.605l7.482-.011v11.592l-7.482,3.55v0l-5.953,2.893v12Zm-.021-24.084,6.992.016v8.894l-6.98,3.022Z" transform="translate(-21425.695 -14668)" fill="rgba(0,0,0,0.87)" opacity="0.87"/>
      </g>
      <g id="Component_183_23" data-name="Component 183 – 23" transform="translate(1302)">
        <rect id="Rectangle_25-17" data-name="Rectangle 25" width="45" height="45" fill="#fff" opacity="0"/>
        <path id="Union_4-17" data-name="Union 4" d="M21432.346,14700.169V14668l31.7.1v32.035l-15.9,12.869Zm4.477-2.095,11.184,9.545,11.586-9.545v-25.819l-9.842.011v.593h0v7.429l-3.594,1.551v-8.99h-.006v-.571l-9.346-.021Zm9.33,6.41v-12.276l3.588-1.746v14.194l-1.719,1.417Zm4.773-14.593,7.486-3.556v11.178l-7.486,6.168Zm-12.924,7.633-.006-10.859,12.93-5.608v-7.605l7.482-.011v11.592l-7.482,3.55v0l-5.953,2.893v12Zm-.021-24.084,6.992.016v8.894l-6.98,3.022Z" transform="translate(-21425.695 -14668)" fill="rgba(0,0,0,0.87)" opacity="0.87"/>
      </g>
      <g id="Component_183_24" data-name="Component 183 – 24" transform="translate(1209)">
        <rect id="Rectangle_25-18" data-name="Rectangle 25" width="45" height="45" fill="#fff" opacity="0"/>
        <path id="Union_4-18" data-name="Union 4" d="M21432.346,14700.169V14668l31.7.1v32.035l-15.9,12.869Zm4.477-2.095,11.184,9.545,11.586-9.545v-25.819l-9.842.011v.593h0v7.429l-3.594,1.551v-8.99h-.006v-.571l-9.346-.021Zm9.33,6.41v-12.276l3.588-1.746v14.194l-1.719,1.417Zm4.773-14.593,7.486-3.556v11.178l-7.486,6.168Zm-12.924,7.633-.006-10.859,12.93-5.608v-7.605l7.482-.011v11.592l-7.482,3.55v0l-5.953,2.893v12Zm-.021-24.084,6.992.016v8.894l-6.98,3.022Z" transform="translate(-21425.695 -14668)" fill="rgba(0,0,0,0.87)" opacity="0.87"/>
      </g>
      <g id="Component_183_13" data-name="Component 183 – 13" transform="translate(1116)">
        <rect id="Rectangle_25-19" data-name="Rectangle 25" width="45" height="45" fill="#fff" opacity="0"/>
        <path id="Union_4-19" data-name="Union 4" d="M21432.346,14700.169V14668l31.7.1v32.035l-15.9,12.869Zm4.477-2.095,11.184,9.545,11.586-9.545v-25.819l-9.842.011v.593h0v7.429l-3.594,1.551v-8.99h-.006v-.571l-9.346-.021Zm9.33,6.41v-12.276l3.588-1.746v14.194l-1.719,1.417Zm4.773-14.593,7.486-3.556v11.178l-7.486,6.168Zm-12.924,7.633-.006-10.859,12.93-5.608v-7.605l7.482-.011v11.592l-7.482,3.55v0l-5.953,2.893v12Zm-.021-24.084,6.992.016v8.894l-6.98,3.022Z" transform="translate(-21425.695 -14668)" fill="rgba(0,0,0,0.87)" opacity="0.87"/>
      </g>
      <g id="Component_183_14" data-name="Component 183 – 14" transform="translate(1023)">
        <rect id="Rectangle_25-20" data-name="Rectangle 25" width="45" height="45" fill="#fff" opacity="0"/>
        <path id="Union_4-20" data-name="Union 4" d="M21432.346,14700.169V14668l31.7.1v32.035l-15.9,12.869Zm4.477-2.095,11.184,9.545,11.586-9.545v-25.819l-9.842.011v.593h0v7.429l-3.594,1.551v-8.99h-.006v-.571l-9.346-.021Zm9.33,6.41v-12.276l3.588-1.746v14.194l-1.719,1.417Zm4.773-14.593,7.486-3.556v11.178l-7.486,6.168Zm-12.924,7.633-.006-10.859,12.93-5.608v-7.605l7.482-.011v11.592l-7.482,3.55v0l-5.953,2.893v12Zm-.021-24.084,6.992.016v8.894l-6.98,3.022Z" transform="translate(-21425.695 -14668)" fill="rgba(0,0,0,0.87)" opacity="0.87"/>
      </g>
      <g id="Component_183_11" data-name="Component 183 – 11" transform="translate(930)">
        <rect id="Rectangle_25-21" data-name="Rectangle 25" width="45" height="45" fill="#fff" opacity="0"/>
        <path id="Union_4-21" data-name="Union 4" d="M21432.346,14700.169V14668l31.7.1v32.035l-15.9,12.869Zm4.477-2.095,11.184,9.545,11.586-9.545v-25.819l-9.842.011v.593h0v7.429l-3.594,1.551v-8.99h-.006v-.571l-9.346-.021Zm9.33,6.41v-12.276l3.588-1.746v14.194l-1.719,1.417Zm4.773-14.593,7.486-3.556v11.178l-7.486,6.168Zm-12.924,7.633-.006-10.859,12.93-5.608v-7.605l7.482-.011v11.592l-7.482,3.55v0l-5.953,2.893v12Zm-.021-24.084,6.992.016v8.894l-6.98,3.022Z" transform="translate(-21425.695 -14668)" fill="rgba(0,0,0,0.87)" opacity="0.87"/>
      </g>
      <g id="Component_183_12" data-name="Component 183 – 12" transform="translate(837)">
        <rect id="Rectangle_25-22" data-name="Rectangle 25" width="45" height="45" fill="#fff" opacity="0"/>
        <path id="Union_4-22" data-name="Union 4" d="M21432.346,14700.169V14668l31.7.1v32.035l-15.9,12.869Zm4.477-2.095,11.184,9.545,11.586-9.545v-25.819l-9.842.011v.593h0v7.429l-3.594,1.551v-8.99h-.006v-.571l-9.346-.021Zm9.33,6.41v-12.276l3.588-1.746v14.194l-1.719,1.417Zm4.773-14.593,7.486-3.556v11.178l-7.486,6.168Zm-12.924,7.633-.006-10.859,12.93-5.608v-7.605l7.482-.011v11.592l-7.482,3.55v0l-5.953,2.893v12Zm-.021-24.084,6.992.016v8.894l-6.98,3.022Z" transform="translate(-21425.695 -14668)" fill="rgba(0,0,0,0.87)" opacity="0.87"/>
      </g>
      <g id="Component_183_9" data-name="Component 183 – 9" transform="translate(744)">
        <rect id="Rectangle_25-23" data-name="Rectangle 25" width="45" height="45" fill="#fff" opacity="0"/>
        <path id="Union_4-23" data-name="Union 4" d="M21432.346,14700.169V14668l31.7.1v32.035l-15.9,12.869Zm4.477-2.095,11.184,9.545,11.586-9.545v-25.819l-9.842.011v.593h0v7.429l-3.594,1.551v-8.99h-.006v-.571l-9.346-.021Zm9.33,6.41v-12.276l3.588-1.746v14.194l-1.719,1.417Zm4.773-14.593,7.486-3.556v11.178l-7.486,6.168Zm-12.924,7.633-.006-10.859,12.93-5.608v-7.605l7.482-.011v11.592l-7.482,3.55v0l-5.953,2.893v12Zm-.021-24.084,6.992.016v8.894l-6.98,3.022Z" transform="translate(-21425.695 -14668)" fill="rgba(0,0,0,0.87)" opacity="0.87"/>
      </g>
      <g id="Component_183_10" data-name="Component 183 – 10" transform="translate(651)">
        <rect id="Rectangle_25-24" data-name="Rectangle 25" width="45" height="45" fill="#fff" opacity="0"/>
        <path id="Union_4-24" data-name="Union 4" d="M21432.346,14700.169V14668l31.7.1v32.035l-15.9,12.869Zm4.477-2.095,11.184,9.545,11.586-9.545v-25.819l-9.842.011v.593h0v7.429l-3.594,1.551v-8.99h-.006v-.571l-9.346-.021Zm9.33,6.41v-12.276l3.588-1.746v14.194l-1.719,1.417Zm4.773-14.593,7.486-3.556v11.178l-7.486,6.168Zm-12.924,7.633-.006-10.859,12.93-5.608v-7.605l7.482-.011v11.592l-7.482,3.55v0l-5.953,2.893v12Zm-.021-24.084,6.992.016v8.894l-6.98,3.022Z" transform="translate(-21425.695 -14668)" fill="rgba(0,0,0,0.87)" opacity="0.87"/>
      </g>
      <g id="Component_183_7" data-name="Component 183 – 7" transform="translate(558)">
        <rect id="Rectangle_25-25" data-name="Rectangle 25" width="45" height="45" fill="#fff" opacity="0"/>
        <path id="Union_4-25" data-name="Union 4" d="M21432.346,14700.169V14668l31.7.1v32.035l-15.9,12.869Zm4.477-2.095,11.184,9.545,11.586-9.545v-25.819l-9.842.011v.593h0v7.429l-3.594,1.551v-8.99h-.006v-.571l-9.346-.021Zm9.33,6.41v-12.276l3.588-1.746v14.194l-1.719,1.417Zm4.773-14.593,7.486-3.556v11.178l-7.486,6.168Zm-12.924,7.633-.006-10.859,12.93-5.608v-7.605l7.482-.011v11.592l-7.482,3.55v0l-5.953,2.893v12Zm-.021-24.084,6.992.016v8.894l-6.98,3.022Z" transform="translate(-21425.695 -14668)" fill="rgba(0,0,0,0.87)" opacity="0.87"/>
      </g>
      <g id="Component_183_8" data-name="Component 183 – 8" transform="translate(465)">
        <rect id="Rectangle_25-26" data-name="Rectangle 25" width="45" height="45" fill="#fff" opacity="0"/>
        <path id="Union_4-26" data-name="Union 4" d="M21432.346,14700.169V14668l31.7.1v32.035l-15.9,12.869Zm4.477-2.095,11.184,9.545,11.586-9.545v-25.819l-9.842.011v.593h0v7.429l-3.594,1.551v-8.99h-.006v-.571l-9.346-.021Zm9.33,6.41v-12.276l3.588-1.746v14.194l-1.719,1.417Zm4.773-14.593,7.486-3.556v11.178l-7.486,6.168Zm-12.924,7.633-.006-10.859,12.93-5.608v-7.605l7.482-.011v11.592l-7.482,3.55v0l-5.953,2.893v12Zm-.021-24.084,6.992.016v8.894l-6.98,3.022Z" transform="translate(-21425.695 -14668)" fill="rgba(0,0,0,0.87)" opacity="0.87"/>
      </g>
      <g id="Component_183_5" data-name="Component 183 – 5" transform="translate(372)">
        <rect id="Rectangle_25-27" data-name="Rectangle 25" width="45" height="45" fill="#fff" opacity="0"/>
        <path id="Union_4-27" data-name="Union 4" d="M21432.346,14700.169V14668l31.7.1v32.035l-15.9,12.869Zm4.477-2.095,11.184,9.545,11.586-9.545v-25.819l-9.842.011v.593h0v7.429l-3.594,1.551v-8.99h-.006v-.571l-9.346-.021Zm9.33,6.41v-12.276l3.588-1.746v14.194l-1.719,1.417Zm4.773-14.593,7.486-3.556v11.178l-7.486,6.168Zm-12.924,7.633-.006-10.859,12.93-5.608v-7.605l7.482-.011v11.592l-7.482,3.55v0l-5.953,2.893v12Zm-.021-24.084,6.992.016v8.894l-6.98,3.022Z" transform="translate(-21425.695 -14668)" fill="rgba(0,0,0,0.87)" opacity="0.87"/>
      </g>
      <g id="Component_183_6" data-name="Component 183 – 6" transform="translate(279)">
        <rect id="Rectangle_25-28" data-name="Rectangle 25" width="45" height="45" fill="#fff" opacity="0"/>
        <path id="Union_4-28" data-name="Union 4" d="M21432.346,14700.169V14668l31.7.1v32.035l-15.9,12.869Zm4.477-2.095,11.184,9.545,11.586-9.545v-25.819l-9.842.011v.593h0v7.429l-3.594,1.551v-8.99h-.006v-.571l-9.346-.021Zm9.33,6.41v-12.276l3.588-1.746v14.194l-1.719,1.417Zm4.773-14.593,7.486-3.556v11.178l-7.486,6.168Zm-12.924,7.633-.006-10.859,12.93-5.608v-7.605l7.482-.011v11.592l-7.482,3.55v0l-5.953,2.893v12Zm-.021-24.084,6.992.016v8.894l-6.98,3.022Z" transform="translate(-21425.695 -14668)" fill="rgba(0,0,0,0.87)" opacity="0.87"/>
      </g>
      <g id="Component_183_4" data-name="Component 183 – 4" transform="translate(186)">
        <rect id="Rectangle_25-29" data-name="Rectangle 25" width="45" height="45" fill="#fff" opacity="0"/>
        <path id="Union_4-29" data-name="Union 4" d="M21432.346,14700.169V14668l31.7.1v32.035l-15.9,12.869Zm4.477-2.095,11.184,9.545,11.586-9.545v-25.819l-9.842.011v.593h0v7.429l-3.594,1.551v-8.99h-.006v-.571l-9.346-.021Zm9.33,6.41v-12.276l3.588-1.746v14.194l-1.719,1.417Zm4.773-14.593,7.486-3.556v11.178l-7.486,6.168Zm-12.924,7.633-.006-10.859,12.93-5.608v-7.605l7.482-.011v11.592l-7.482,3.55v0l-5.953,2.893v12Zm-.021-24.084,6.992.016v8.894l-6.98,3.022Z" transform="translate(-21425.695 -14668)" fill="rgba(0,0,0,0.87)" opacity="0.87"/>
      </g>
      <g id="Component_183_3" data-name="Component 183 – 3" transform="translate(93)">
        <rect id="Rectangle_25-30" data-name="Rectangle 25" width="45" height="45" fill="#fff" opacity="0"/>
        <path id="Union_4-30" data-name="Union 4" d="M21432.346,14700.169V14668l31.7.1v32.035l-15.9,12.869Zm4.477-2.095,11.184,9.545,11.586-9.545v-25.819l-9.842.011v.593h0v7.429l-3.594,1.551v-8.99h-.006v-.571l-9.346-.021Zm9.33,6.41v-12.276l3.588-1.746v14.194l-1.719,1.417Zm4.773-14.593,7.486-3.556v11.178l-7.486,6.168Zm-12.924,7.633-.006-10.859,12.93-5.608v-7.605l7.482-.011v11.592l-7.482,3.55v0l-5.953,2.893v12Zm-.021-24.084,6.992.016v8.894l-6.98,3.022Z" transform="translate(-21425.695 -14668)" fill="rgba(0,0,0,0.87)" opacity="0.87"/>
      </g>
      <g id="Component_183_2" data-name="Component 183 – 2" transform="translate(0)">
        <rect id="Rectangle_25-31" data-name="Rectangle 25" width="45" height="45" fill="#fff" opacity="0"/>
        <path id="Union_4-31" data-name="Union 4" d="M21432.346,14700.169V14668l31.7.1v32.035l-15.9,12.869Zm4.477-2.095,11.184,9.545,11.586-9.545v-25.819l-9.842.011v.593h0v7.429l-3.594,1.551v-8.99h-.006v-.571l-9.346-.021Zm9.33,6.41v-12.276l3.588-1.746v14.194l-1.719,1.417Zm4.773-14.593,7.486-3.556v11.178l-7.486,6.168Zm-12.924,7.633-.006-10.859,12.93-5.608v-7.605l7.482-.011v11.592l-7.482,3.55v0l-5.953,2.893v12Zm-.021-24.084,6.992.016v8.894l-6.98,3.022Z" transform="translate(-21425.695 -14668)" fill="rgba(0,0,0,0.87)" opacity="0.87"/>
      </g>
    </g>
  </g>
</svg>
