<svg xmlns="http://www.w3.org/2000/svg" xmlns:xlink="http://www.w3.org/1999/xlink" width="52.19" height="20" viewBox="0 0 52.19 20">
  <defs>
    <clipPath id="clip-path">
      <rect id="Rectangle_28" data-name="Rectangle 28" width="52.19" height="20" fill="rgba(255,255,255,0.6)"/>
    </clipPath>
  </defs>
  <g id="Group_313" data-name="Group 313" clip-path="url(#clip-path)">
    <path id="Path_147" data-name="Path 147" d="M13.351,9.264c.055,1.853,2.016,2.289,2.016,4.033,0,2.071-1.417,2.507-1.744,3.379C12.861,18.692,12.425,20,10.245,20a2.921,2.921,0,0,1-2.125-.763c-.817-.817-.981-2.343-1.962-3-.708-.49-3.161-.218-4.414-.654A2.573,2.573,0,0,1,0,13.133V12.37a3.917,3.917,0,0,1,.763-2.18l5.45-7.9A4.6,4.6,0,0,1,9.918,0c1.8,0,2.67.654,3.052,1.907a46.128,46.128,0,0,1,.381,7.357M6.321,9.7A1.216,1.216,0,0,0,7.3,8.665c0-.327-.163-.981-.654-.981a1.082,1.082,0,0,0-1.035,1.09c0,.6.218.926.708.926m19.511,10A9.121,9.121,0,0,1,16.7,10.518a10.5,10.5,0,0,1,2.221-6.861A8.816,8.816,0,0,1,25.981.548a9.248,9.248,0,0,1,9.032,9.526c0,5.725-4,9.625-9.181,9.625m-1.472-6.99c3.311,1.878,7.2-1.9,5.811-5.309A3.986,3.986,0,0,0,26.01,5.018a4.263,4.263,0,0,0-3.841,3.5A4.353,4.353,0,0,0,24.347,12.7Zm25.017,6.423A3.372,3.372,0,0,1,46.268,17.4l-1.53-2.517c-.543-.938-1.185-1.431-1.629-1.431-1.086,0-1.53.691-1.53,2.419,0,2.172-.938,3.208-2.517,3.208-1.678,0-2.715-.987-2.715-2.024L36.4,4.324c0-2.715,1.135-3.406,3.356-3.406h5.232c5.577,0,7.206,3.109,7.206,5.676A5.674,5.674,0,0,1,51.8,8.963c-.938,2.122-2.073,2.172-2.073,3.751,0,1.431,1.826,3.406,1.826,4.64,0,1.283-.74,1.777-2.172,1.777M43.9,8.815c1.876,0,2.764-.888,2.764-1.876,0-1.135-.839-1.876-2.419-1.925-1.629-.049-2.517.642-2.517,1.876A1.935,1.935,0,0,0,43.9,8.815" fill="rgba(255,255,255,0.6)"/>
  </g>
</svg>