<svg xmlns="http://www.w3.org/2000/svg">
  
  
<g transform="translate(0)">
      
      <path id="Union_4-5" data-name="Union 4" d="M21432.346,14700.169V14668l31.7.1v32.035l-15.9,12.869Zm4.477-2.095,11.184,9.545,11.586-9.545v-25.819l-9.842.011v.593h0v7.429l-3.594,1.551v-8.99h-.006v-.571l-9.346-.021Zm9.33,6.41v-12.276l3.588-1.746v14.194l-1.719,1.417Zm4.773-14.593,7.486-3.556v11.178l-7.486,6.168Zm-12.924,7.633-.006-10.859,12.93-5.608v-7.605l7.482-.011v11.592l-7.482,3.55v0l-5.953,2.893v12Zm-.021-24.084,6.992.016v8.894l-6.98,3.022Z" transform="translate(-21425.695 -14668)" fill="#8a764b" opacity="0.87"/>
    </g><!-- Code injected by live-server -->

</svg>